<mxfile host="app.diagrams.net" modified="2020-05-21T13:32:19.776Z" agent="5.0 (X11)" etag="bUPBxMleLKnpXCC2f2LP" version="13.1.3" type="github">
  <diagram id="56olpVnG2lmv2a7JucS9" name="Page-1">
    <mxGraphModel dx="1422" dy="778" grid="1" gridSize="10" guides="1" tooltips="1" connect="1" arrows="1" fold="1" page="1" pageScale="1" pageWidth="1100" pageHeight="850" math="0" shadow="0">
      <root>
        <mxCell id="0" />
        <mxCell id="1" parent="0" />
        <mxCell id="ZexKZWk68Z9xCkmGoOVX-1" value="&lt;div align=&quot;center&quot;&gt;Web-server&lt;/div&gt;" style="verticalAlign=top;align=center;overflow=fill;fontSize=12;fontFamily=Helvetica;html=1;fillColor=#dae8fc;strokeColor=#6c8ebf;" vertex="1" parent="1">
          <mxGeometry x="200" y="50" width="710" height="500" as="geometry" />
        </mxCell>
        <mxCell id="ZexKZWk68Z9xCkmGoOVX-2" style="edgeStyle=none;rounded=0;orthogonalLoop=1;jettySize=auto;html=1;exitX=0.5;exitY=0.5;exitDx=0;exitDy=0;exitPerimeter=0;" edge="1" parent="1" source="ZexKZWk68Z9xCkmGoOVX-5" target="ZexKZWk68Z9xCkmGoOVX-17">
          <mxGeometry relative="1" as="geometry" />
        </mxCell>
        <mxCell id="ZexKZWk68Z9xCkmGoOVX-3" style="edgeStyle=none;rounded=0;orthogonalLoop=1;jettySize=auto;html=1;exitX=0.5;exitY=0.5;exitDx=0;exitDy=0;exitPerimeter=0;" edge="1" parent="1" source="ZexKZWk68Z9xCkmGoOVX-5" target="ZexKZWk68Z9xCkmGoOVX-19">
          <mxGeometry relative="1" as="geometry" />
        </mxCell>
        <mxCell id="ZexKZWk68Z9xCkmGoOVX-4" style="edgeStyle=none;rounded=0;orthogonalLoop=1;jettySize=auto;html=1;exitX=0.5;exitY=0.5;exitDx=0;exitDy=0;exitPerimeter=0;" edge="1" parent="1" source="ZexKZWk68Z9xCkmGoOVX-5" target="ZexKZWk68Z9xCkmGoOVX-41">
          <mxGeometry relative="1" as="geometry" />
        </mxCell>
        <mxCell id="ZexKZWk68Z9xCkmGoOVX-5" value="User" style="shape=umlActor;verticalLabelPosition=bottom;labelBackgroundColor=#ffffff;verticalAlign=top;html=1;" vertex="1" parent="1">
          <mxGeometry x="60" y="140" width="30" height="60" as="geometry" />
        </mxCell>
        <mxCell id="ZexKZWk68Z9xCkmGoOVX-6" style="edgeStyle=none;rounded=0;orthogonalLoop=1;jettySize=auto;html=1;exitX=0.5;exitY=0.5;exitDx=0;exitDy=0;exitPerimeter=0;" edge="1" parent="1" source="ZexKZWk68Z9xCkmGoOVX-8" target="ZexKZWk68Z9xCkmGoOVX-16">
          <mxGeometry relative="1" as="geometry" />
        </mxCell>
        <mxCell id="ZexKZWk68Z9xCkmGoOVX-7" style="edgeStyle=none;rounded=0;orthogonalLoop=1;jettySize=auto;html=1;exitX=0.5;exitY=0.5;exitDx=0;exitDy=0;exitPerimeter=0;" edge="1" parent="1" source="ZexKZWk68Z9xCkmGoOVX-8" target="ZexKZWk68Z9xCkmGoOVX-17">
          <mxGeometry relative="1" as="geometry" />
        </mxCell>
        <mxCell id="ZexKZWk68Z9xCkmGoOVX-8" value="Admin" style="shape=umlActor;verticalLabelPosition=bottom;labelBackgroundColor=#ffffff;verticalAlign=top;html=1;" vertex="1" parent="1">
          <mxGeometry x="60" y="470" width="30" height="60" as="geometry" />
        </mxCell>
        <mxCell id="ZexKZWk68Z9xCkmGoOVX-9" value="" style="endArrow=classic;html=1;exitX=0.5;exitY=0.5;exitDx=0;exitDy=0;exitPerimeter=0;" edge="1" parent="1" source="ZexKZWk68Z9xCkmGoOVX-5" target="ZexKZWk68Z9xCkmGoOVX-11">
          <mxGeometry width="50" height="50" relative="1" as="geometry">
            <mxPoint x="100" y="170" as="sourcePoint" />
            <mxPoint x="255.21171306560336" y="138.25214960021754" as="targetPoint" />
          </mxGeometry>
        </mxCell>
        <mxCell id="ZexKZWk68Z9xCkmGoOVX-10" style="edgeStyle=none;rounded=0;orthogonalLoop=1;jettySize=auto;html=1;exitX=1;exitY=0.5;exitDx=0;exitDy=0;" edge="1" parent="1" source="ZexKZWk68Z9xCkmGoOVX-11" target="ZexKZWk68Z9xCkmGoOVX-32">
          <mxGeometry relative="1" as="geometry" />
        </mxCell>
        <mxCell id="ZexKZWk68Z9xCkmGoOVX-11" value="Register" style="ellipse;whiteSpace=wrap;html=1;" vertex="1" parent="1">
          <mxGeometry x="220" y="170" width="100" height="70" as="geometry" />
        </mxCell>
        <mxCell id="ZexKZWk68Z9xCkmGoOVX-12" style="edgeStyle=none;rounded=0;orthogonalLoop=1;jettySize=auto;html=1;exitX=0.5;exitY=0;exitDx=0;exitDy=0;dashed=1;" edge="1" parent="1" source="ZexKZWk68Z9xCkmGoOVX-16" target="ZexKZWk68Z9xCkmGoOVX-19">
          <mxGeometry relative="1" as="geometry" />
        </mxCell>
        <mxCell id="ZexKZWk68Z9xCkmGoOVX-13" value="include" style="edgeLabel;html=1;align=center;verticalAlign=middle;resizable=0;points=[];" vertex="1" connectable="0" parent="ZexKZWk68Z9xCkmGoOVX-12">
          <mxGeometry x="0.1425" y="2" relative="1" as="geometry">
            <mxPoint as="offset" />
          </mxGeometry>
        </mxCell>
        <mxCell id="ZexKZWk68Z9xCkmGoOVX-14" style="edgeStyle=none;rounded=0;orthogonalLoop=1;jettySize=auto;html=1;exitX=1;exitY=0.5;exitDx=0;exitDy=0;dashed=1;" edge="1" parent="1" source="ZexKZWk68Z9xCkmGoOVX-16" target="ZexKZWk68Z9xCkmGoOVX-21">
          <mxGeometry relative="1" as="geometry" />
        </mxCell>
        <mxCell id="ZexKZWk68Z9xCkmGoOVX-15" value="extends" style="edgeLabel;html=1;align=center;verticalAlign=middle;resizable=0;points=[];" vertex="1" connectable="0" parent="ZexKZWk68Z9xCkmGoOVX-14">
          <mxGeometry x="-0.4889" y="-4" relative="1" as="geometry">
            <mxPoint as="offset" />
          </mxGeometry>
        </mxCell>
        <mxCell id="ZexKZWk68Z9xCkmGoOVX-16" value="Admin Login" style="ellipse;whiteSpace=wrap;html=1;" vertex="1" parent="1">
          <mxGeometry x="280" y="465" width="140" height="70" as="geometry" />
        </mxCell>
        <mxCell id="ZexKZWk68Z9xCkmGoOVX-17" value="View services" style="ellipse;whiteSpace=wrap;html=1;" vertex="1" parent="1">
          <mxGeometry x="220" y="370" width="140" height="70" as="geometry" />
        </mxCell>
        <mxCell id="ZexKZWk68Z9xCkmGoOVX-18" style="edgeStyle=none;rounded=0;orthogonalLoop=1;jettySize=auto;html=1;exitX=0.5;exitY=0;exitDx=0;exitDy=0;" edge="1" parent="1" source="ZexKZWk68Z9xCkmGoOVX-19" target="ZexKZWk68Z9xCkmGoOVX-32">
          <mxGeometry relative="1" as="geometry" />
        </mxCell>
        <mxCell id="ZexKZWk68Z9xCkmGoOVX-19" value="Login" style="ellipse;whiteSpace=wrap;html=1;" vertex="1" parent="1">
          <mxGeometry x="350" y="310" width="140" height="70" as="geometry" />
        </mxCell>
        <mxCell id="ZexKZWk68Z9xCkmGoOVX-20" style="edgeStyle=none;rounded=0;orthogonalLoop=1;jettySize=auto;html=1;exitX=1;exitY=0.5;exitDx=0;exitDy=0;" edge="1" parent="1" source="ZexKZWk68Z9xCkmGoOVX-21" target="ZexKZWk68Z9xCkmGoOVX-22">
          <mxGeometry relative="1" as="geometry" />
        </mxCell>
        <mxCell id="ZexKZWk68Z9xCkmGoOVX-21" value="Perform admin operations" style="ellipse;whiteSpace=wrap;html=1;" vertex="1" parent="1">
          <mxGeometry x="570" y="465" width="140" height="70" as="geometry" />
        </mxCell>
        <mxCell id="ZexKZWk68Z9xCkmGoOVX-22" value="Database" style="html=1;fillColor=#d5e8d4;strokeColor=#82b366;" vertex="1" parent="1">
          <mxGeometry x="940" y="480" width="140" height="40" as="geometry" />
        </mxCell>
        <mxCell id="ZexKZWk68Z9xCkmGoOVX-23" style="edgeStyle=none;rounded=0;orthogonalLoop=1;jettySize=auto;html=1;exitX=1;exitY=0.5;exitDx=0;exitDy=0;" edge="1" parent="1" source="ZexKZWk68Z9xCkmGoOVX-24" target="ZexKZWk68Z9xCkmGoOVX-37">
          <mxGeometry relative="1" as="geometry" />
        </mxCell>
        <mxCell id="ZexKZWk68Z9xCkmGoOVX-24" value="Input parameters" style="ellipse;whiteSpace=wrap;html=1;" vertex="1" parent="1">
          <mxGeometry x="590" y="170" width="140" height="50" as="geometry" />
        </mxCell>
        <mxCell id="ZexKZWk68Z9xCkmGoOVX-25" style="rounded=0;orthogonalLoop=1;jettySize=auto;html=1;exitX=1;exitY=0.5;exitDx=0;exitDy=0;entryX=0;entryY=0.25;entryDx=0;entryDy=0;" edge="1" parent="1" source="ZexKZWk68Z9xCkmGoOVX-26" target="ZexKZWk68Z9xCkmGoOVX-33">
          <mxGeometry relative="1" as="geometry" />
        </mxCell>
        <mxCell id="ZexKZWk68Z9xCkmGoOVX-26" value="Purchase service" style="ellipse;whiteSpace=wrap;html=1;" vertex="1" parent="1">
          <mxGeometry x="590" y="230" width="140" height="50" as="geometry" />
        </mxCell>
        <mxCell id="ZexKZWk68Z9xCkmGoOVX-27" style="edgeStyle=none;rounded=0;orthogonalLoop=1;jettySize=auto;html=1;exitX=1;exitY=0.5;exitDx=0;exitDy=0;" edge="1" parent="1" source="ZexKZWk68Z9xCkmGoOVX-28" target="ZexKZWk68Z9xCkmGoOVX-33">
          <mxGeometry relative="1" as="geometry" />
        </mxCell>
        <mxCell id="ZexKZWk68Z9xCkmGoOVX-28" value="Payments" style="ellipse;whiteSpace=wrap;html=1;" vertex="1" parent="1">
          <mxGeometry x="540" y="300" width="140" height="45" as="geometry" />
        </mxCell>
        <mxCell id="ZexKZWk68Z9xCkmGoOVX-29" style="edgeStyle=none;rounded=0;orthogonalLoop=1;jettySize=auto;html=1;exitX=1;exitY=0.5;exitDx=0;exitDy=0;" edge="1" parent="1" source="ZexKZWk68Z9xCkmGoOVX-32" target="ZexKZWk68Z9xCkmGoOVX-24">
          <mxGeometry relative="1" as="geometry" />
        </mxCell>
        <mxCell id="ZexKZWk68Z9xCkmGoOVX-30" style="edgeStyle=none;rounded=0;orthogonalLoop=1;jettySize=auto;html=1;exitX=1;exitY=0.5;exitDx=0;exitDy=0;" edge="1" parent="1" source="ZexKZWk68Z9xCkmGoOVX-32" target="ZexKZWk68Z9xCkmGoOVX-26">
          <mxGeometry relative="1" as="geometry" />
        </mxCell>
        <mxCell id="ZexKZWk68Z9xCkmGoOVX-31" style="edgeStyle=none;rounded=0;orthogonalLoop=1;jettySize=auto;html=1;exitX=1;exitY=0.5;exitDx=0;exitDy=0;" edge="1" parent="1" source="ZexKZWk68Z9xCkmGoOVX-32" target="ZexKZWk68Z9xCkmGoOVX-28">
          <mxGeometry relative="1" as="geometry" />
        </mxCell>
        <mxCell id="ZexKZWk68Z9xCkmGoOVX-32" value="Home" style="ellipse;whiteSpace=wrap;html=1;" vertex="1" parent="1">
          <mxGeometry x="390" y="180" width="140" height="70" as="geometry" />
        </mxCell>
        <mxCell id="ZexKZWk68Z9xCkmGoOVX-33" value="Payment system" style="html=1;fillColor=#e1d5e7;strokeColor=#9673a6;" vertex="1" parent="1">
          <mxGeometry x="940" y="360" width="140" height="45" as="geometry" />
        </mxCell>
        <mxCell id="ZexKZWk68Z9xCkmGoOVX-34" style="rounded=0;orthogonalLoop=1;jettySize=auto;html=1;exitX=0.5;exitY=0;exitDx=0;exitDy=0;" edge="1" parent="1" source="ZexKZWk68Z9xCkmGoOVX-35" target="ZexKZWk68Z9xCkmGoOVX-40">
          <mxGeometry relative="1" as="geometry" />
        </mxCell>
        <mxCell id="ZexKZWk68Z9xCkmGoOVX-35" value="Base system" style="html=1;fillColor=#f8cecc;strokeColor=#b85450;" vertex="1" parent="1">
          <mxGeometry x="940" y="250" width="140" height="35" as="geometry" />
        </mxCell>
        <mxCell id="ZexKZWk68Z9xCkmGoOVX-36" style="edgeStyle=none;rounded=0;orthogonalLoop=1;jettySize=auto;html=1;exitX=1;exitY=1;exitDx=0;exitDy=0;entryX=0;entryY=0.5;entryDx=0;entryDy=0;" edge="1" parent="1" source="ZexKZWk68Z9xCkmGoOVX-37" target="ZexKZWk68Z9xCkmGoOVX-35">
          <mxGeometry relative="1" as="geometry" />
        </mxCell>
        <mxCell id="ZexKZWk68Z9xCkmGoOVX-37" value="Check parameters" style="ellipse;whiteSpace=wrap;html=1;" vertex="1" parent="1">
          <mxGeometry x="750" y="190" width="140" height="70" as="geometry" />
        </mxCell>
        <mxCell id="ZexKZWk68Z9xCkmGoOVX-38" style="edgeStyle=none;rounded=0;orthogonalLoop=1;jettySize=auto;html=1;exitX=0;exitY=0.5;exitDx=0;exitDy=0;" edge="1" parent="1" source="ZexKZWk68Z9xCkmGoOVX-40" target="ZexKZWk68Z9xCkmGoOVX-32">
          <mxGeometry relative="1" as="geometry" />
        </mxCell>
        <mxCell id="ZexKZWk68Z9xCkmGoOVX-39" style="edgeStyle=none;rounded=0;orthogonalLoop=1;jettySize=auto;html=1;exitX=0;exitY=0.5;exitDx=0;exitDy=0;" edge="1" parent="1" source="ZexKZWk68Z9xCkmGoOVX-40" target="ZexKZWk68Z9xCkmGoOVX-41">
          <mxGeometry relative="1" as="geometry" />
        </mxCell>
        <mxCell id="ZexKZWk68Z9xCkmGoOVX-40" value="Return analyzed parameters" style="ellipse;whiteSpace=wrap;html=1;" vertex="1" parent="1">
          <mxGeometry x="750" y="80" width="140" height="60" as="geometry" />
        </mxCell>
        <mxCell id="ZexKZWk68Z9xCkmGoOVX-41" value="Accessing reports" style="ellipse;whiteSpace=wrap;html=1;" vertex="1" parent="1">
          <mxGeometry x="490" y="85" width="140" height="60" as="geometry" />
        </mxCell>
      </root>
    </mxGraphModel>
  </diagram>
</mxfile>
